<?xml version="1.0" encoding="utf-8"?>
<!-- Svg Vector Icons : http://www.onlinewebfonts.com/icon -->
<!DOCTYPE svg PUBLIC "-//W3C//DTD SVG 1.1//EN" "http://www.w3.org/Graphics/SVG/1.1/DTD/svg11.dtd">
<svg version="1.1" xmlns="http://www.w3.org/2000/svg" xmlns:xlink="http://www.w3.org/1999/xlink" x="0px" y="0px" viewBox="0 0 1000 1000" enable-background="new 0 0 1000 1000" xml:space="preserve">
<metadata> Svg Vector Icons : http://www.onlinewebfonts.com/icon </metadata>
<g><g transform="translate(0.000000,511.000000) scale(0.100000,-0.100000)"><path d="M2483,3672.4C1389.1,3547.9,502.1,2860.1,203.2,1909.9C-42,1132.1,157.3,266.1,720.5-329.6l122.6-132.2L728.2-988.7c-63.2-291.2-114.9-549.8-114.9-578.6c0-26.8,13.4-53.6,28.7-59.4s289.3,116.9,611.1,275.9l582.4,287.4l155.2-46c530.7-153.3,1210.8-132.2,1739.5,51.7c396.6,139.8,768.2,377.4,1061.3,682c417.6,433,632.2,925.3,660.9,1509.6c46,929.2-494.3,1800.8-1396.6,2254.9c-201.2,99.6-553.7,216.5-777.8,252.9C3050.1,3680.1,2678.4,3693.5,2483,3672.4z M3134.4,2647.5c463.6-118.8,806.5-513.4,898.5-1034.5c72.8-417.6-9.6-837.2-224.2-1143.7l-84.3-122.6l157.1-141.8c122.6-109.2,155.2-147.5,141.8-170.5c-9.6-17.2-69-82.4-132.2-143.7l-114.9-113L3596.1-57.6L3416,109.1l-103.4-46c-57.5-24.9-155.2-57.5-218.4-70.9c-162.8-34.5-507.7-30.7-660.9,7.6c-444.5,115-779.7,461.7-894.7,923.4c-44.1,183.9-44.1,601.6,0,783.5c46,182,162.8,421.5,270.1,553.7c172.4,208.8,465.5,371.7,749.1,415.7C2705.2,2697.3,2988.8,2683.9,3134.4,2647.5z"/><path d="M2640.1,2197.3c-348.7-61.3-570.9-402.3-570.9-881.3c0-371.7,151.3-682,390.8-802.7c101.5-49.8,310.4-84.3,411.9-67.1c143.7,23,143.7,21.1,15.3,139.8l-116.9,111.1l120.7,137.9c67.1,74.7,128.4,136,137.9,136c11.5,0,80.5-57.5,153.3-126.4c159-149.4,164.8-147.5,241.4,61.3c95.8,260.5,78.5,660.9-40.2,917.7C3255.1,2103.4,2958.1,2252.8,2640.1,2197.3z"/><path d="M6916.1,1833.3c-341-40.2-647.5-130.3-952.1-277.8l-197.3-95.8l-7.6-277.8c-3.8-153.3-21.1-346.8-38.3-431.1c-132.2-628.4-473.2-1184-977-1590.1L4575-973.4l13.4-86.2c17.2-126.4,113-398.5,193.5-559.4c166.7-329.5,471.3-687.8,772.1-904.2c191.6-137.9,496.2-297,716.5-373.6c528.8-183.9,1208.9-205,1739.5-51.7l153.3,44.1l582.4-283.5c354.4-174.3,592-281.6,611.1-274c17.2,5.8,30.6,32.6,30.6,55.6c0,24.9-51.7,283.5-115,576.6L9157.6-2301l122.6,132.2c641.8,680.1,802.7,1693.5,400.4,2542.2c-226.1,477-664.8,917.7-1172.5,1172.5c-208.8,105.4-559.4,218.4-787.4,256.7C7494.7,1840.9,7105.8,1856.2,6916.1,1833.3z M7996.6-421.6c262.5-705,480.8-1291.2,486.6-1302.7c5.7-19.2-59.4-24.9-289.3-24.9H7897l-93.9,283.5l-95.8,281.6l-488.5,5.7l-488.5,3.8l-101.5-287.4l-99.6-287.4h-285.4c-157.1,0-285.5,3.8-285.5,9.6c0,5.8,216.5,580.5,478.9,1277.8c264.4,699.3,482.8,1281.7,488.5,1295.1c5.7,17.3,84.3,23,300.8,23h293.1L7996.6-421.6z"/><path d="M7046.4-277.9l-164.7-465.5l327.6-5.7c178.2-1.9,329.5,0,333.3,3.8c11.5,11.5-304.6,931.1-321.8,931.1C7215,185.7,7136.4-23.1,7046.4-277.9z"/></g></g>
</svg>