<?xml version="1.0" encoding="iso-8859-1"?>
<!-- Generator: Adobe Illustrator 19.0.0, SVG Export Plug-In . SVG Version: 6.00 Build 0)  -->
<svg version="1.1" id="Layer_1" xmlns="http://www.w3.org/2000/svg" xmlns:xlink="http://www.w3.org/1999/xlink" x="0px" y="0px"
	 viewBox="0 0 512 512" style="enable-background:new 0 0 512 512;" xml:space="preserve">
<circle style="fill:#FFC61B;" cx="256" cy="256" r="256"/>
<path style="fill:#EAA22F;" d="M507.844,302.139L383.871,178.166l-47.38,35.049L242.5,119.224L124.997,330.55L302.266,507.82
	C406.6,488.774,488.85,406.49,507.844,302.139z"/>
<path style="fill:#E6E6E6;" d="M217.286,173.106h152.798c11.783,0,21.337,9.552,21.337,21.337v176.999
	c0,11.783-9.552,21.337-21.337,21.337H269.5L217.286,173.106z"/>
<polygon style="fill:#4254B7;" points="313.99,338.894 269.5,392.776 249.247,330.55 "/>
<path style="fill:#627D88;" d="M352.006,248.344h22.392v-11.416h-50.431v-14.331h-17.18v14.331h-27.71v11.416h59.77
	c-1.767,6.554-7.352,24.078-18.482,32.828c0,0-9.421-10.166-13.577-19.034h-12.073c0,0,6.53,18.011,17.337,28.541l-13.855,14.408
	l6.373,11.638c0,0,11.083-9.975,16.072-17.18c0,0,25.216,26.324,32.142,32.142l7.482-9.144c0,0-25.05-23.093-30.758-33.806
	C329.507,288.74,349.467,269.29,352.006,248.344z"/>
<path style="fill:#4F8FF5;" d="M313.99,338.894H141.917c-11.783,0-21.337-9.552-21.337-21.337V140.56
	c0-11.783,9.552-21.337,21.337-21.337h100.585L313.99,338.894z"/>
<path style="fill:#EEEEEE;" d="M197.644,223.149v14.989h23.442c-3.324,10.73-13.326,18.525-25.148,18.525
	c-14.538,0-26.324-11.786-26.324-26.324c0-14.538,11.785-26.324,26.322-26.324c6.794,0,12.967,2.596,17.637,6.821l11-11.776
	c-7.546-6.913-17.598-11.133-28.638-11.133c-23.423,0-42.41,18.987-42.41,42.41c0,23.423,18.987,42.41,42.41,42.41
	s42.41-18.987,42.41-42.41c0-2.453-0.226-4.851-0.629-7.19h-40.072V223.149z"/>
<g>
</g>
<g>
</g>
<g>
</g>
<g>
</g>
<g>
</g>
<g>
</g>
<g>
</g>
<g>
</g>
<g>
</g>
<g>
</g>
<g>
</g>
<g>
</g>
<g>
</g>
<g>
</g>
<g>
</g>
</svg>
